<svg xmlns="http://www.w3.org/2000/svg" width="423" height="389" fill="none" viewBox="0 0 423 389"><defs><path id="a" fill="#5a3f2e" d="M264 118c0 20.987-33.131 38-74 38s-74-17.013-74-38 33.131-38 74-38 74 17.013 74 38"/><path id="b" stroke="#d6bda7" d="M148.55 71c-.33-1.99-1.66-5.98-2.83-11.305-2.293-10.437 1.49-14.675 2.99-18.68 1.598-4.266 3.5-7.995 5-12 2.17-4.005 2.84-7.665 2.675-10.66-.165-1.345-.495-2.335-2.835-4.355M177 71c0-4.63 1.98-14.64 5.155-19.815 2.743-4.47 4.175-7.175 4.345-9.17.374-4.387-3.16-7.995-4.33-13.155-.17-2.16-.17-5.46.16-7.655S183.32 18.02 186 15m21 60c1.99-1.99 5.32-5.98 7.99-12.475 2.384-5.798 5.67-11.505 5.68-21.32.006-5.694-5.65-7.865-8.33-11.19-.67-4.005-1.34-9.645-.845-15.475.495-2.2 1.485-2.86 3.505-4.54"/></defs><ellipse cx="266.5" cy="169" fill="#d6bda7" rx="43.5" ry="39"/><rect width="154" height="151" x="113" y="93" fill="#d6bda7" rx="30"/><use href="#a"/><use stroke-linecap="round" stroke-width="2" href="#b"/><ellipse cx="266.5" cy="169" fill="#d6bda7" rx="43.5" ry="39"/><rect width="154" height="151" x="113" y="93" fill="#d6bda7" rx="30"/><path fill="#a3b18a" stroke="#6b4f3a" d="M171.429 199.024c6.585-3.746 14.906-1.638 18.598 4.662s1.384 14.454-5.201 18.199-14.906 1.638-18.598-4.662-1.384-14.454 5.201-18.199Z"/><path fill="#a3b18a" stroke="#6b4f3a" d="M163.587 176.81c6.584-3.745 14.905-1.638 18.597 4.662 3.692 6.301 1.385 14.454-5.2 18.2s-14.906 1.637-18.598-4.663-1.384-14.454 5.201-18.199Z"/><path fill="#a3b18a" stroke="#6b4f3a" d="M185.288 163.447c6.585-3.746 14.906-1.638 18.598 4.662 3.692 6.301 1.385 14.454-5.2 18.2s-14.906 1.637-18.598-4.663-1.384-14.454 5.2-18.199Z"/><path fill="#a3b18a" stroke="#6b4f3a" d="M206.016 177.643c6.585-3.746 14.906-1.638 18.598 4.662 3.692 6.301 1.384 14.454-5.2 18.2-6.585 3.745-14.906 1.637-18.598-4.663s-1.385-14.454 5.2-18.199Z"/><path fill="#a3b18a" stroke="#6b4f3a" d="M198.556 199.692c6.585-3.746 14.906-1.638 18.598 4.662s1.384 14.454-5.2 18.199c-6.585 3.746-14.906 1.638-18.598-4.662s-1.385-14.454 5.2-18.199Z"/><path fill="#e7d8c9" stroke="#6b4f3a" d="M185.671 183.656c6.584-3.745 14.905-1.638 18.598 4.663 3.691 6.3 1.384 14.453-5.201 18.199-6.585 3.745-14.906 1.637-18.598-4.663s-1.384-14.453 5.201-18.199Z"/><use href="#a"/><use stroke-linecap="round" stroke-width="2" href="#b"/><path fill="#6b4f3a" d="M85.493 305.144q6.24.48 9.168 2.88t2.928 5.664q0 4.464-3.504 6.912-3.504 2.4-9.744 2.4-1.392 0-2.352-.048a205 205 0 0 0-6.192-.096q-4.944 0-7.392.144v-.96q1.584-.096 2.304-.384.768-.288 1.008-1.104.288-.816.288-2.64v-23.808q0-1.824-.288-2.64-.24-.816-1.008-1.104-.72-.288-2.304-.384v-.96q2.448.144 7.296.144l5.328-.048q.96-.048 2.208-.048 5.76 0 8.784 2.064 3.072 2.064 3.072 5.472 0 2.784-2.448 5.184-2.4 2.4-7.152 3.264zm-2.88-15.168q-1.296 0-1.92.336-.576.336-.816 1.2t-.24 2.592v10.848h2.064q3.12 0 4.368-2.112 1.248-2.16 1.248-5.712 0-3.6-1.152-5.376-1.104-1.776-3.552-1.776m.336 31.92q6.672 0 6.672-8.4 0-3.792-1.92-5.76t-6.048-1.968h-2.016v12.144q0 1.728.24 2.544t.912 1.152q.72.288 2.16.288m32.25-27.12q-1.632.096-2.352.384t-1.008 1.104q-.24.816-.24 2.64v19.584q0 1.488.24 2.208.288.72.912.96t1.872.24h1.872q3.168 0 5.328-2.256 2.16-2.304 2.928-7.392h1.104q-.144 1.584-.144 3.936 0 2.976.336 6.816-3.12-.144-10.512-.144-9.888 0-14.88.144v-.96q1.632-.096 2.352-.384t.96-1.104q.288-.816.288-2.64v-19.008q0-1.824-.288-2.64-.24-.816-1.008-1.104-.72-.288-2.304-.384v-.96q2.448.144 7.584.144 4.512 0 6.96-.144zm29.674-1.632q4.848 0 8.496 1.776 3.648 1.728 5.664 5.136 2.016 3.36 2.016 8.064 0 4.608-2.064 8.16-2.064 3.504-5.76 5.472-3.696 1.92-8.4 1.92-4.848 0-8.496-1.728-3.648-1.776-5.664-5.136-2.016-3.408-2.016-8.112 0-4.608 2.064-8.112 2.064-3.552 5.76-5.472 3.696-1.968 8.4-1.968m-.192.864q-2.496 0-4.416 1.872-1.872 1.824-2.928 5.136-1.008 3.264-1.008 7.488 0 4.272 1.152 7.536t3.12 5.04q2.016 1.728 4.416 1.728 2.496 0 4.368-1.824 1.92-1.872 2.928-5.136 1.056-3.312 1.056-7.536 0-4.272-1.152-7.536t-3.168-4.992q-1.968-1.776-4.368-1.776m36.614-.864q4.848 0 8.496 1.776 3.648 1.728 5.664 5.136 2.016 3.36 2.016 8.064 0 4.608-2.064 8.16-2.064 3.504-5.76 5.472-3.696 1.92-8.4 1.92-4.848 0-8.496-1.728-3.648-1.776-5.664-5.136-2.016-3.408-2.016-8.112 0-4.608 2.064-8.112 2.064-3.552 5.76-5.472 3.696-1.968 8.4-1.968m-.192.864q-2.496 0-4.416 1.872-1.872 1.824-2.928 5.136-1.008 3.264-1.008 7.488 0 4.272 1.152 7.536t3.12 5.04q2.016 1.728 4.416 1.728 2.496 0 4.368-1.824 1.92-1.872 2.928-5.136 1.056-3.312 1.056-7.536 0-4.272-1.152-7.536t-3.168-4.992q-1.968-1.776-4.368-1.776m58.8.768q-1.728.096-2.544.384-.768.288-1.056 1.104t-.288 2.64v19.008q0 1.824.288 2.64t1.056 1.104q.816.288 2.544.384v.96q-2.592-.144-7.248-.144-5.568 0-8.16.144v-.96q1.728-.096 2.496-.384.816-.288 1.104-1.104t.288-2.64V296.84l-10.992 26.4h-.768l-11.136-26.352v19.68q0 2.112.384 3.216.384 1.056 1.392 1.536 1.056.48 3.168.72v.96q-2.064-.144-5.472-.144-2.64 0-4.176.144v-.96q1.584-.24 2.304-.72.768-.48 1.008-1.536.288-1.056.288-3.216v-17.664q0-1.824-.288-2.64a1.73 1.73 0 0 0-1.104-1.104q-.768-.288-2.496-.384v-.96q2.496.144 7.632.144 2.496 0 4.272-.144l7.968 19.152 8.016-19.008h4.272q4.656 0 7.248-.144zm36.473-6.432q3.168 0 5.184.96 2.064.912 3.648 2.16.96.72 1.44.192.528-.576.72-2.64h1.104a140 140 0 0 0-.144 4.56q-.048 2.64-.048 7.056h-1.104q-.24-2.208-.624-3.744-.384-1.584-1.056-2.784t-1.92-2.16a7.5 7.5 0 0 0-2.784-1.776 9.6 9.6 0 0 0-3.312-.576q-2.592 0-4.416 1.392-1.824 1.344-2.976 3.696-1.104 2.352-1.632 5.328a34.3 34.3 0 0 0-.528 6.096q0 3.216.528 6.192.576 2.928 1.728 5.232 1.2 2.304 3.072 3.648t4.416 1.344a9.2 9.2 0 0 0 3.168-.576q1.632-.624 2.784-1.776 1.872-1.44 2.544-3.552.672-2.16 1.008-5.712h1.104q0 4.56.048 7.392.048 2.784.144 4.704h-1.104q-.192-2.064-.672-2.592-.432-.528-1.488.144a26 26 0 0 1-3.792 2.208q-1.968.912-5.088.912-5.088 0-8.928-2.064-3.792-2.064-5.904-5.952t-2.112-9.36q0-5.376 2.16-9.408 2.208-4.032 6-6.288 3.84-2.256 8.832-2.256m22.564 34.992q-2.16 0-3.6-.816t-2.112-2.16a6.9 6.9 0 0 1-.672-3.024q0-2.064.912-3.36a7.5 7.5 0 0 1 2.448-2.112 18 18 0 0 1 3.12-1.344 443 443 0 0 0 3.168-1.008q1.536-.528 2.448-1.2.96-.72.96-1.824v-3.744q0-1.248-.432-2.208-.384-1.008-1.248-1.536-.816-.528-2.16-.528-.96 0-1.92.288-.96.24-1.584.864 1.344.48 2.064 1.488.768.96.768 2.208 0 1.632-1.152 2.592-1.104.96-2.64.96-1.728 0-2.64-1.056-.864-1.104-.864-2.64 0-1.392.672-2.304.72-.912 1.968-1.728 1.344-.768 3.216-1.2 1.92-.432 4.128-.432t3.984.48q1.776.432 2.976 1.632 1.104 1.104 1.44 2.736.336 1.584.336 4.032v13.056q0 1.2.24 1.68.24.432.816.432.432 0 .816-.24.432-.24.912-.576l.48.816a7.4 7.4 0 0 1-2.352 1.344q-1.296.432-2.928.432-1.776 0-2.832-.48-1.056-.528-1.536-1.392-.432-.864-.432-2.016-1.152 1.824-2.784 2.88-1.632 1.008-3.984 1.008m3.408-3.072q.96 0 1.728-.432.816-.48 1.536-1.536v-9.84q-.432.72-1.2 1.296t-1.632 1.2a16 16 0 0 0-1.68 1.296 5.5 5.5 0 0 0-1.248 1.776q-.48 1.056-.48 2.544 0 1.872.816 2.784t2.16.912m27.484-34.8q1.68 0 2.928.432a8 8 0 0 1 2.208 1.152q.672.528 1.152 1.488.48.912.48 2.112 0 1.296-.96 2.304-.912 1.008-2.448 1.008-1.584 0-2.64-.912-1.008-.912-1.008-2.496 0-1.248.72-2.208t2.112-1.344q-.144-.288-.576-.48t-1.152-.192q-.96 0-1.584.336a2.8 2.8 0 0 0-1.008.912q-.528.72-.72 2.112-.192 1.344-.192 4.176v4.368h5.136v.96h-5.136v18.864q0 2.352 1.2 3.168 1.2.768 3.312.768V323q-1.248-.048-3.504-.096a112 112 0 0 0-4.752-.096q-1.824 0-3.6.096-1.728.048-2.64.096v-1.008q1.68 0 2.352-.72.72-.72.72-2.736v-19.344h-3.264v-.96h3.264q0-2.832.288-4.704.288-1.92.96-3.264a8.7 8.7 0 0 1 1.776-2.4q1.056-1.008 2.784-1.68a10 10 0 0 1 3.792-.72m15.743 12.048q4.224 0 6.624 2.496t2.4 8.16h-15.792l-.096-.912h9.84q.048-2.352-.288-4.32-.336-2.016-1.056-3.216t-1.92-1.2q-1.68 0-2.88 2.112-1.152 2.112-1.392 7.008l.144.288q-.048.576-.096 1.2v1.296q0 3.312.912 5.376.96 2.064 2.4 3.024 1.44.912 2.928.912 1.008 0 2.064-.288 1.104-.336 2.208-1.152 1.104-.864 2.064-2.4l.864.288q-.576 1.824-1.824 3.552a10 10 0 0 1-3.168 2.832q-1.92 1.104-4.608 1.104-3.264 0-5.76-1.392t-3.936-4.224q-1.392-2.832-1.392-7.2 0-4.464 1.488-7.44 1.536-2.976 4.176-4.416 2.688-1.488 6.096-1.488m4.944-13.728q.816.624.864 1.728t-.72 2.064a8.8 8.8 0 0 1-1.872 1.728 215 215 0 0 0-2.64 1.872q-1.488 1.104-3.6 3.072l-.528-.432q1.44-2.592 2.112-4.32.672-1.776 1.152-3.024a6.9 6.9 0 0 1 1.296-2.16q.72-.96 1.872-1.104 1.2-.192 2.064.576"/></svg>